<svg width="278" height="57" viewBox="0 0 278 57" fill="none" xmlns="http://www.w3.org/2000/svg">
<path d="M58.162 16.1567L60.394 3.55674H65.866L68.098 16.1567H64.984L64.606 13.5647H61.654L61.276 16.1567H58.162ZM61.978 11.3327H64.282L63.49 5.95074H62.77L61.978 11.3327ZM69.0036 16.1567V3.55674H72.0276V8.47074H73.1796L74.9616 3.55674H78.2556L75.8076 9.49674L78.5256 16.1567H75.1956L73.3056 11.0627H72.0276V16.1567H69.0036ZM78.746 16.1567L80.978 3.55674H86.45L88.682 16.1567H85.568L85.19 13.5647H82.238L81.86 16.1567H78.746ZM82.562 11.3327H84.866L84.074 5.95074H83.354L82.562 11.3327ZM89.1196 18.6767V13.5287H90.0736L91.9096 3.55674H99.0196V13.5287H99.9916V18.6767H97.6156V16.1567H91.4956V18.6767H89.1196ZM93.1336 13.7447H95.9956V5.96874H94.3576L93.1336 13.7447ZM100.996 16.1567V3.55674H108.196V6.07674H104.02V8.52474H107.62V10.9367H104.02V13.6367H108.376V16.1567H100.996ZM109.539 16.1567V3.55674H112.779L114.759 8.21874L116.739 3.55674H119.979V16.1567H117.045V7.98474L115.227 12.1067H114.291L112.473 7.98474V16.1567H109.539ZM130.493 16.1567H127.595V8.39874L124.139 16.1567H121.457V3.55674H124.355V11.3147L127.811 3.55674H130.493V16.1567ZM131.914 5.69874V10.4507L133.228 11.7647L131.32 16.1567H134.74L135.874 12.5927H137.692V16.1567H140.716V3.55674H134.056L131.914 5.69874ZM137.692 10.1807H134.938V5.96874H137.692V10.1807ZM58.738 34.1567V21.5567H61.978L63.958 26.2187L65.938 21.5567H69.178V34.1567H66.244V25.9847L64.426 30.1067H63.49L61.672 25.9847V34.1567H58.738ZM70.656 34.1567V21.5567H77.856V24.0767H73.68V26.5247H77.28V28.9367H73.68V31.6367H78.036V34.1567H70.656ZM79.1989 34.1567V21.5567H82.2229V26.3087H84.9409V21.5567H87.9649V34.1567H84.9409V29.0447H82.2229V34.1567H79.1989ZM89.447 34.1567V21.5567H96.647V24.0767H92.471V26.5247H96.071V28.9367H92.471V31.6367H96.827V34.1567H89.447ZM97.522 36.6767V31.5287H98.476L100.312 21.5567H107.422V31.5287H108.394V36.6767H106.018V34.1567H99.898V36.6767H97.522ZM101.536 31.7447H104.398V23.9687H102.76L101.536 31.7447ZM117.696 34.1567H114.672V29.0807H113.646L112.116 34.1567H108.714L111.09 27.4967L108.984 21.5567H112.332L113.772 26.4527H114.672V21.5567H117.696V26.4527H118.614L120.036 21.5567H123.384L121.296 27.4967L123.654 34.1567H120.27L118.74 29.0807H117.696V34.1567ZM124.445 34.1567V21.5567H131.645V24.0767H127.469V26.5247H131.069V28.9367H127.469V31.6367H131.825V34.1567H124.445ZM141.646 23.6987V29.4227L139.504 31.5647H136.012V34.1567H132.988V21.5567H139.504L141.646 23.6987ZM136.012 29.1527H138.622V23.9687H136.012V29.1527ZM142.778 32.0147V23.6987L144.92 21.5567H149.708L151.85 23.6987V32.0147L149.708 34.1567H144.92L142.778 32.0147ZM145.892 24.2387V31.4747H148.736V24.2387H145.892ZM161.895 23.5907V26.5607L160.833 27.5147L162.255 28.6847V32.1227L160.221 34.1567H153.273V21.5567H159.861L161.895 23.5907ZM156.279 26.6507H158.871V23.9687H156.279V26.6507ZM156.279 31.7447H159.177V28.7387H156.279V31.7447ZM58.738 52.1567V39.5567H61.978L63.958 44.2187L65.938 39.5567H69.178V52.1567H66.244V43.9847L64.426 48.1067H63.49L61.672 43.9847V52.1567H58.738ZM70.08 52.1567L72.312 39.5567H77.784L80.016 52.1567H76.902L76.524 49.5647H73.572L73.194 52.1567H70.08ZM73.896 47.3327H76.2L75.408 41.9507H74.688L73.896 47.3327ZM89.5796 41.6987V47.4227L87.4376 49.5647H83.9456V52.1567H80.9216V39.5567H87.4376L89.5796 41.6987ZM83.9456 47.1527H86.5556V41.9687H83.9456V47.1527ZM90.7653 52.1567V39.5567H93.7893V44.4707H94.9413L96.7233 39.5567H100.017L97.5693 45.4967L100.287 52.1567H96.9573L95.0673 47.0627H93.7893V52.1567H90.7653ZM101.084 52.1567V39.5567H108.284V42.0767H104.108V44.5247H107.708V46.9367H104.108V49.6367H108.464V52.1567H101.084ZM111.625 52.1567V42.2387H109.195V39.5567H117.169V42.2387H114.703V52.1567H111.625ZM118.205 52.1567V39.5567H126.899V52.1567H123.875V42.1847H121.229V52.1567H118.205ZM137.491 39.5567V52.1567H134.467V42.2027H132.487L130.957 52.1567H127.807L129.985 39.5567H137.491ZM138.965 52.1567V39.5567H146.165V42.0767H141.989V44.5247H145.589V46.9367H141.989V49.6367H146.345V52.1567H138.965ZM156.544 52.1567H153.646V44.3987L150.19 52.1567H147.508V39.5567H150.406V47.3147L153.862 39.5567H156.544V52.1567ZM152.764 36.3167H155.32L154.222 38.7827H149.83L148.732 36.3167H151.306L151.342 37.5947H152.71L152.764 36.3167ZM157.965 50.0147V41.6987L160.107 39.5567H165.255V42.3467H161.151V49.3667H165.381V52.1567H160.107L157.965 50.0147ZM166.491 50.0147V41.6987L168.633 39.5567H173.421L175.563 41.6987V50.0147L173.421 52.1567H168.633L166.491 50.0147ZM169.605 42.2387V49.4747H172.449V42.2387H169.605ZM185.608 41.5907V44.5607L184.546 45.5147L185.968 46.6847V50.1227L183.934 52.1567H176.986V39.5567H183.574L185.608 41.5907ZM179.992 44.6507H182.584V41.9687H179.992V44.6507ZM179.992 49.7447H182.89V46.7387H179.992V49.7447Z" fill="#25242C"/>
<path d="M0 2.15681C0 1.60453 0.447715 1.15681 1 1.15681H8V55.1568C8 55.7091 7.55228 56.1568 7 56.1568H1C0.447715 56.1568 0 55.7091 0 55.1568V2.15681Z" fill="#25242C"/>
<path d="M40.8431 0.999998C40.8431 0.447713 40.3954 0 39.8431 0H32.8431V55.1568C32.8431 55.7091 33.2909 56.1568 33.8431 56.1568H39.8431C40.3954 56.1568 40.8431 55.7091 40.8431 55.1568V0.999998Z" fill="#25242C"/>
<path fill-rule="evenodd" clip-rule="evenodd" d="M37.7929 6.36385C38.1834 5.97333 38.1834 5.34015 37.7929 4.94963L32.8431 0L19.8432 12.9999L8 1.15681L3.05027 6.10644C2.65974 6.49697 2.65973 7.13014 3.05026 7.52067L14.1863 18.6567L13.636 19.207C13.4485 19.3946 13.3431 19.6489 13.3431 19.9142V28.3994C13.3431 29.2903 14.4203 29.7365 15.0503 29.1065L19.8432 24.3136L25.7929 30.2633C26.4229 30.8933 27.5 30.4471 27.5 29.5562V21.071C27.5 20.8058 27.3946 20.5514 27.2071 20.3639L25.5 18.6568L37.7929 6.36385ZM25.5 18.6568L19.8432 12.9999L14.1863 18.6567L19.8432 24.3136L25.5 18.6568Z" fill="#25242C"/>
</svg>
