<svg xmlns="http://www.w3.org/2000/svg" width="35" height="49" viewBox="0 0 35 49" fill="none"><path d="M0 1.99132C0 1.43903 0.447715 0.991316 1 0.991316H6.85549V47.1228C6.85549 47.6751 6.40778 48.1228 5.85549 48.1228H0.999999C0.447715 48.1228 0 47.6751 0 47.1228V1.99132Z" fill="white"></path><path d="M35 1C35 0.447715 34.5523 0 34 0H28.1445V47.1228C28.1445 47.6751 28.5922 48.1228 29.1445 48.1228H34C34.5523 48.1228 35 47.6751 35 47.1228V1Z" fill="white"></path><path fill-rule="evenodd" clip-rule="evenodd" d="M32.285 5.55458C32.6755 5.16405 32.6755 4.53088 32.285 4.14036L28.1445 0L17.0043 11.1401L6.85549 0.991316L2.71505 5.13168C2.32452 5.5222 2.32451 6.15537 2.71504 6.5459L12.1568 15.9877L11.7271 16.4173C11.5396 16.6049 11.4342 16.8592 11.4342 17.1244V23.9911C11.4342 24.882 12.5114 25.3282 13.1413 24.6982L17.0043 20.8352L21.8587 25.6895C22.4886 26.3195 23.5658 25.8733 23.5658 24.9824V18.1157C23.5658 17.8505 23.4604 17.5962 23.2729 17.4086L21.8519 15.9877L32.285 5.55458ZM21.8519 15.9877L17.0043 11.1401L12.1568 15.9877L17.0043 20.8352L21.8519 15.9877Z" fill="white"></path></svg>