<svg xmlns="http://www.w3.org/2000/svg" width="41" height="57" viewBox="0 0 41 57" fill="none"><path d="M0 2.15681C0 1.60453 0.447715 1.15681 1 1.15681H8V55.1568C8 55.7091 7.55228 56.1568 7 56.1568H1C0.447715 56.1568 0 55.7091 0 55.1568V2.15681Z" fill="#25242C"></path><path d="M40.8431 0.999998C40.8431 0.447713 40.3954 0 39.8431 0H32.8431V55.1568C32.8431 55.7091 33.2909 56.1568 33.8431 56.1568H39.8431C40.3954 56.1568 40.8431 55.7091 40.8431 55.1568V0.999998Z" fill="#25242C"></path><path fill-rule="evenodd" clip-rule="evenodd" d="M37.7929 6.36385C38.1834 5.97333 38.1834 5.34015 37.7929 4.94963L32.8431 0L19.8432 12.9999L8 1.15681L3.05027 6.10644C2.65974 6.49697 2.65973 7.13014 3.05026 7.52067L14.1863 18.6567L13.636 19.207C13.4485 19.3946 13.3431 19.6489 13.3431 19.9142V28.3994C13.3431 29.2903 14.4203 29.7365 15.0503 29.1065L19.8432 24.3136L25.7929 30.2633C26.4229 30.8933 27.5 30.4471 27.5 29.5562V21.071C27.5 20.8058 27.3946 20.5514 27.2071 20.3639L25.5 18.6568L37.7929 6.36385ZM25.5 18.6568L19.8432 12.9999L14.1863 18.6567L19.8432 24.3136L25.5 18.6568Z" fill="#25242C"></path></svg>