<svg xmlns="http://www.w3.org/2000/svg" width="25" height="25" viewBox="0 0 25 25" fill="none"><path d="M0.984356 0.985657C0.719366 0.989797 0.466855 1.09895 0.282285 1.28913C0.0977151 1.47932 -0.0038204 1.73499 -1.90531e-05 1.99998V24C7.46372e-06 24.2652 0.105373 24.5195 0.292904 24.7071C0.480434 24.8946 0.734773 25 0.999981 25H23C23.1325 25.0019 23.2641 24.9774 23.387 24.928C23.51 24.8785 23.6219 24.8052 23.7163 24.7121C23.8107 24.6191 23.8856 24.5082 23.9367 24.386C23.9879 24.2637 24.0142 24.1325 24.0142 24C24.0142 23.8675 23.9879 23.7362 23.9367 23.614C23.8856 23.4917 23.8107 23.3809 23.7163 23.2878C23.6219 23.1948 23.51 23.1214 23.387 23.072C23.2641 23.0226 23.1325 22.9981 23 23H21.3294C21.3204 20.2296 21.2048 17.7928 20.9935 15.6666H18.9804C19.1982 17.7927 19.3199 20.2352 19.3294 23H6.67055C6.68011 20.2352 6.80178 17.7927 7.01951 15.6666H5.00649C4.79516 17.7928 4.6796 20.2296 4.67055 23H1.99998V14.276C2.10703 14.3139 2.21976 14.3333 2.33331 14.3333C2.59853 14.3333 2.85288 14.228 3.04042 14.0404C3.22796 13.8529 3.33331 13.5985 3.33331 13.3333C3.33331 13.0681 3.22796 12.8137 3.04042 12.6262C2.85288 12.4387 2.59853 12.3333 2.33331 12.3333C2.21968 12.3338 2.10696 12.3536 1.99998 12.3919V1.99998C2.0019 1.86614 1.97693 1.73327 1.92656 1.60925C1.87618 1.48524 1.80142 1.37259 1.70671 1.278C1.612 1.18341 1.49926 1.1088 1.37518 1.05858C1.2511 1.00836 1.1182 0.983565 0.984356 0.985657ZM13 0.99998C11.1466 0.99998 7.46633 2.19331 5.67967 11H7.74607C8.97941 5.26665 11.0933 2.99998 13 2.99998C14.9066 2.99998 17.0206 5.26665 18.2539 11H20.3203C18.5336 2.19331 14.8533 0.99998 13 0.99998ZM5.66665 12.3333C5.40143 12.3333 5.14708 12.4387 4.95954 12.6262C4.772 12.8137 4.66665 13.0681 4.66665 13.3333C4.66665 13.5985 4.772 13.8529 4.95954 14.0404C5.14708 14.228 5.40143 14.3333 5.66665 14.3333C5.93186 14.3333 6.18622 14.228 6.37375 14.0404C6.56129 13.8529 6.66665 13.5985 6.66665 13.3333C6.66665 13.0681 6.56129 12.8137 6.37375 12.6262C6.18622 12.4387 5.93186 12.3333 5.66665 12.3333ZM8.99998 12.3333C8.73476 12.3333 8.48041 12.4387 8.29287 12.6262C8.10534 12.8137 7.99998 13.0681 7.99998 13.3333C7.99998 13.5985 8.10534 13.8529 8.29287 14.0404C8.48041 14.228 8.73476 14.3333 8.99998 14.3333C9.2652 14.3333 9.51955 14.228 9.70709 14.0404C9.89462 13.8529 9.99998 13.5985 9.99998 13.3333C9.99998 13.0681 9.89462 12.8137 9.70709 12.6262C9.51955 12.4387 9.2652 12.3333 8.99998 12.3333ZM12.3333 12.3333C12.0681 12.3333 11.8137 12.4387 11.6262 12.6262C11.4387 12.8137 11.3333 13.0681 11.3333 13.3333C11.3333 13.5985 11.4387 13.8529 11.6262 14.0404C11.8137 14.228 12.0681 14.3333 12.3333 14.3333C12.5985 14.3333 12.8529 14.228 13.0404 14.0404C13.228 13.8529 13.3333 13.5985 13.3333 13.3333C13.3333 13.0681 13.228 12.8137 13.0404 12.6262C12.8529 12.4387 12.5985 12.3333 12.3333 12.3333ZM15.6666 12.3333C15.4014 12.3333 15.1471 12.4387 14.9595 12.6262C14.772 12.8137 14.6666 13.0681 14.6666 13.3333C14.6666 13.5985 14.772 13.8529 14.9595 14.0404C15.1471 14.228 15.4014 14.3333 15.6666 14.3333C15.9319 14.3333 16.1862 14.228 16.3738 14.0404C16.5613 13.8529 16.6666 13.5985 16.6666 13.3333C16.6666 13.0681 16.5613 12.8137 16.3738 12.6262C16.1862 12.4387 15.9319 12.3333 15.6666 12.3333ZM19 12.3333C18.7348 12.3333 18.4804 12.4387 18.2929 12.6262C18.1053 12.8137 18 13.0681 18 13.3333C18 13.5985 18.1053 13.8529 18.2929 14.0404C18.4804 14.228 18.7348 14.3333 19 14.3333C19.2652 14.3333 19.5196 14.228 19.7071 14.0404C19.8946 13.8529 20 13.5985 20 13.3333C20 13.0681 19.8946 12.8137 19.7071 12.6262C19.5196 12.4387 19.2652 12.3333 19 12.3333ZM22.3333 12.3333C22.0681 12.3333 21.8137 12.4387 21.6262 12.6262C21.4387 12.8137 21.3333 13.0681 21.3333 13.3333C21.3333 13.5985 21.4387 13.8529 21.6262 14.0404C21.8137 14.228 22.0681 14.3333 22.3333 14.3333C22.5985 14.3333 22.8529 14.228 23.0404 14.0404C23.228 13.8529 23.3333 13.5985 23.3333 13.3333C23.3333 13.0681 23.228 12.8137 23.0404 12.6262C22.8529 12.4387 22.5985 12.3333 22.3333 12.3333Z" fill="#25242C"></path></svg>