<svg xmlns="http://www.w3.org/2000/svg" width="28" height="26" viewBox="0 0 28 26" fill="none"><path d="M14 0.333313C12.1691 0.333313 10.6628 1.8396 10.6628 3.67055V23.6627H8.67322C8.67355 21.6646 8.67713 10.7273 8.67713 9.67055C8.67713 7.8396 7.17084 6.33331 5.33989 6.33331C3.50893 6.33331 2.00395 7.8396 2.00395 9.67055C2.00395 10.7241 2.00037 21.6617 2.00004 23.6627H1.66671C1.5342 23.6609 1.40263 23.6853 1.27967 23.7348C1.1567 23.7842 1.04478 23.8575 0.950406 23.9506C0.856037 24.0436 0.781101 24.1545 0.729953 24.2768C0.678805 24.399 0.652466 24.5302 0.652466 24.6627C0.652466 24.7953 0.678805 24.9265 0.729953 25.0487C0.781101 25.171 0.856037 25.2819 0.950406 25.3749C1.04478 25.4679 1.1567 25.5413 1.27967 25.5907C1.40263 25.6401 1.5342 25.6646 1.66671 25.6627H26.3334C26.4659 25.6646 26.5975 25.6401 26.7204 25.5907C26.8434 25.5413 26.9553 25.4679 27.0497 25.3749C27.144 25.2819 27.219 25.171 27.2701 25.0487C27.3213 24.9265 27.3476 24.7953 27.3476 24.6627C27.3476 24.5302 27.3213 24.399 27.2701 24.2768C27.219 24.1545 27.144 24.0436 27.0497 23.9506C26.9553 23.8575 26.8434 23.7842 26.7204 23.7348C26.5975 23.6853 26.4659 23.6609 26.3334 23.6627H26V15C26 13.169 24.4938 11.6627 22.6628 11.6627C20.8318 11.6627 19.3269 13.169 19.3269 15V23.6627H17.3373V3.67055C17.3373 1.8396 15.831 0.333313 14 0.333313ZM14 2.33331C14.7504 2.33331 15.3373 2.92018 15.3373 3.67055V23.6627H12.6628V3.67055C12.6628 2.92018 13.2497 2.33331 14 2.33331ZM5.33989 8.33331C6.09026 8.33331 6.67713 8.92018 6.67713 9.67055C6.67713 10.7234 6.67355 21.6611 6.67322 23.6627H4.00004C4.00037 21.6652 4.00395 10.7279 4.00395 9.67055C4.00395 8.92018 4.58951 8.33331 5.33989 8.33331ZM22.6628 13.6627C23.4132 13.6627 24 14.2496 24 15V23.6627H21.3269V15C21.3269 14.2496 21.9124 13.6627 22.6628 13.6627Z" fill="#25242C"></path></svg>