<svg xmlns="http://www.w3.org/2000/svg" width="22" height="28" viewBox="0 0 22 28" fill="none"><path d="M10.9999 1.22919e-08C10.7652 -3.67677e-05 10.538 0.0824675 10.358 0.233073C10.358 0.233073 7.87291 2.31036 5.39054 5.36068C2.90817 8.411 0.333252 12.4531 0.333252 16.6667C0.333252 22.3625 4.83053 27.0203 10.457 27.306C10.6357 27.3243 10.8166 27.3333 10.9999 27.3333C11.1833 27.3333 11.3642 27.3243 11.5429 27.306C17.1693 27.0203 21.6666 22.3625 21.6666 16.6667C21.6666 12.162 18.7338 7.8521 16.0963 4.74479C15.9638 4.58852 15.7866 4.47669 15.5885 4.42443C15.3904 4.37217 15.181 4.382 14.9887 4.45259C14.7964 4.52318 14.6304 4.65112 14.5132 4.81912C14.396 4.98712 14.3332 5.18707 14.3333 5.39193V8.33333C14.3333 8.89767 13.8976 9.33333 13.3333 9.33333C12.7689 9.33333 12.3333 8.89767 12.3333 8.33333V1.29036C12.3332 1.14881 12.3032 1.00887 12.245 0.879808C12.1869 0.750742 12.102 0.635488 11.996 0.541667C11.779 0.349488 11.6445 0.235677 11.6445 0.235677C11.4641 0.0835569 11.2358 7.99671e-05 10.9999 1.22919e-08ZM10.3333 2.96484V8.33333C10.3333 9.97833 11.6883 11.3333 13.3333 11.3333C14.9783 11.3333 16.3333 9.97833 16.3333 8.33333V8.32031C18.1587 10.9101 19.6666 13.9258 19.6666 16.6667C19.6666 19.5779 18.2372 22.1406 16.0455 23.7109C16.2293 23.1729 16.3333 22.5983 16.3333 22C16.3333 19.7727 15.1131 17.7342 13.97 16.1953C12.8268 14.6565 11.6783 13.599 11.6783 13.599C11.58 13.5081 11.4645 13.4379 11.3386 13.3925C11.2126 13.3471 11.0789 13.3274 10.9452 13.3346C10.7129 13.3475 10.4924 13.441 10.3215 13.599C10.3215 13.599 9.17301 14.6565 8.02987 16.1953C6.88672 17.7342 5.66659 19.7727 5.66659 22C5.66659 22.5983 5.77057 23.1729 5.95435 23.7109C3.76262 22.1406 2.33325 19.5779 2.33325 16.6667C2.33325 13.3036 4.59166 9.51255 6.94263 6.6237C8.24647 5.02154 9.43111 3.82178 10.3333 2.96484ZM10.9999 15.8385C11.3772 16.2192 11.6797 16.468 12.3632 17.388C13.3867 18.7658 14.3333 20.5606 14.3333 22C14.3333 23.7367 13.0325 25.1464 11.3437 25.3164C11.2306 25.3278 11.1162 25.3333 10.9999 25.3333C10.8841 25.3333 10.7701 25.3277 10.6575 25.3164C10.657 25.3164 10.6566 25.3164 10.6562 25.3164C8.96738 25.1464 7.66659 23.7367 7.66659 22C7.66659 20.5606 8.61311 18.7658 9.63664 17.388C10.3201 16.468 10.6226 16.2192 10.9999 15.8385Z" fill="#25242C"></path></svg>