<svg xmlns="http://www.w3.org/2000/svg" width="30" height="30" viewBox="0 0 30 30" fill="none"><path d="M20.9453 0.666667C20.7318 0.659719 20.5217 0.721327 20.3457 0.842466C20.1697 0.963605 20.0372 1.13791 19.9674 1.33984L18.6042 5.28906C16.9075 4.47219 15.0097 4 13 4C5.83221 4 0 9.83221 0 17C0 24.1678 5.83221 30 13 30C20.1678 30 26 24.1678 26 17C26 14.9909 25.5287 13.0934 24.7122 11.3971L28.6602 10.0339C28.7843 9.99095 28.8988 9.92401 28.9971 9.83685C29.0953 9.74969 29.1755 9.64403 29.2329 9.5259C29.2903 9.40777 29.3239 9.27948 29.3318 9.14836C29.3396 9.01724 29.3216 8.88586 29.2786 8.76172C27.9788 4.99433 25.005 2.02125 21.2383 0.721354C21.1439 0.688595 21.0452 0.670161 20.9453 0.666667ZM21.4948 3.04688C23.9234 4.14664 25.8535 6.07736 26.9531 8.50651L18.6159 11.3841L21.4948 3.04688ZM12 6.05078V16H2.05078C2.5253 10.7147 6.7147 6.5253 12 6.05078ZM14 6.05208C15.4105 6.18146 16.7403 6.57635 17.9479 7.1901L16.0547 12.6732C15.9933 12.8505 15.9831 13.0416 16.0252 13.2244C16.0673 13.4073 16.1599 13.5747 16.2926 13.7074C16.4253 13.8401 16.5927 13.9327 16.7756 13.9748C16.9584 14.0169 17.1495 14.0067 17.3268 13.9453L22.8099 12.0534C23.5668 13.543 24 15.2159 24 17C24 19.6826 23.0442 22.1351 21.4557 24.0417L14 16.5859V6.05208ZM2.05078 18H12.5859L20.0417 25.4557C18.1351 27.0442 15.6826 28 13 28C7.25089 28 2.55492 23.6152 2.05078 18Z" fill="#25242C"></path></svg>