<svg xmlns="http://www.w3.org/2000/svg" width="30" height="30" viewBox="0 0 30 30" fill="none"><path d="M14.9845 0.985657C14.7195 0.989797 14.467 1.09895 14.2824 1.28913C14.0978 1.47932 13.9963 1.73499 14.0001 1.99998V3.05076C8.1819 3.53433 3.53443 8.18181 3.05086 14H2.00008C1.86757 13.9981 1.73601 14.0226 1.61304 14.072C1.49007 14.1214 1.37815 14.1948 1.28378 14.2878C1.18941 14.3809 1.11447 14.4917 1.06333 14.614C1.01218 14.7363 0.98584 14.8675 0.98584 15C0.98584 15.1325 1.01218 15.2637 1.06333 15.386C1.11447 15.5082 1.18941 15.6191 1.28378 15.7121C1.37815 15.8052 1.49007 15.8785 1.61304 15.928C1.73601 15.9774 1.86757 16.0019 2.00008 16H3.05086C3.53443 21.8182 8.1819 26.4656 14.0001 26.9492V28C13.9982 28.1325 14.0227 28.2641 14.0721 28.387C14.1215 28.51 14.1949 28.6219 14.2879 28.7163C14.381 28.8107 14.4918 28.8856 14.6141 28.9367C14.7364 28.9879 14.8676 29.0142 15.0001 29.0142C15.1326 29.0142 15.2638 28.9879 15.3861 28.9367C15.5083 28.8856 15.6192 28.8107 15.7122 28.7163C15.8053 28.6219 15.8786 28.51 15.9281 28.387C15.9775 28.2641 16.002 28.1325 16.0001 28V26.9492C18.5042 26.7411 20.7944 25.7701 22.6277 24.2565C25.0539 22.2533 26.6739 19.314 26.9493 16H28.0001C28.0335 16.0004 28.067 15.9991 28.1003 15.9961C28.3576 15.9728 28.596 15.8509 28.7654 15.6559C28.9348 15.4609 29.0222 15.2079 29.0092 14.9499C28.9963 14.6918 28.884 14.4488 28.6959 14.2718C28.5077 14.0947 28.2584 13.9973 28.0001 14H26.9493C26.9431 13.9255 26.9451 13.8488 26.9376 13.7747C26.5681 10.1492 24.5778 6.99509 21.7045 5.05206C20.0495 3.93291 18.0993 3.22523 16.0001 3.05076V1.99998C16.002 1.86614 15.977 1.73327 15.9267 1.60925C15.8763 1.48524 15.8015 1.37259 15.7068 1.278C15.6121 1.18341 15.4994 1.1088 15.3753 1.05858C15.2512 1.00836 15.1183 0.983565 14.9845 0.985657ZM14.0001 5.05076V5.99998C13.9982 6.13249 14.0227 6.26405 14.0721 6.38702C14.1215 6.50999 14.1949 6.62191 14.2879 6.71628C14.381 6.81065 14.4918 6.88559 14.6141 6.93674C14.7364 6.98788 14.8676 7.01422 15.0001 7.01422C15.1326 7.01422 15.2638 6.98788 15.3861 6.93674C15.5083 6.88559 15.6192 6.81065 15.7122 6.71628C15.8053 6.62191 15.8786 6.50999 15.9281 6.38702C15.9775 6.26405 16.002 6.13249 16.0001 5.99998V5.05076C17.6931 5.21783 19.2603 5.80275 20.5964 6.70441C22.1921 7.78119 23.4586 9.30744 24.2162 11.1028C24.5951 12.0005 24.8458 12.965 24.948 13.9752C24.9488 13.9834 24.9485 13.9918 24.9493 14H24.0001C23.8676 13.9981 23.736 14.0226 23.613 14.072C23.4901 14.1214 23.3781 14.1948 23.2838 14.2878C23.1894 14.3809 23.1145 14.4917 23.0633 14.614C23.0122 14.7363 22.9858 14.8675 22.9858 15C22.9858 15.1325 23.0122 15.2637 23.0633 15.386C23.1145 15.5082 23.1894 15.6191 23.2838 15.7121C23.3781 15.8052 23.4901 15.8785 23.613 15.928C23.736 15.9774 23.8676 16.0019 24.0001 16H24.9493C24.882 16.6821 24.7489 17.3435 24.5522 17.9778C23.969 19.8582 22.8468 21.4986 21.366 22.72C19.8851 23.9415 18.0452 24.7436 16.0248 24.9479C16.0167 24.9487 16.0082 24.9484 16.0001 24.9492V24C16.002 23.8661 15.977 23.7333 15.9267 23.6093C15.8763 23.4852 15.8015 23.3726 15.7068 23.278C15.6121 23.1834 15.4994 23.1088 15.3753 23.0586C15.2512 23.0084 15.1183 22.9836 14.9845 22.9857C14.7195 22.9898 14.467 23.0989 14.2824 23.2891C14.0978 23.4793 13.9963 23.735 14.0001 24V24.9492C13.655 24.9151 13.3156 24.8649 12.9819 24.7969C8.73738 23.9313 5.48396 20.3888 5.05086 16H6.00008C6.03355 16.0004 6.06701 15.9991 6.10034 15.9961C6.35764 15.9728 6.59596 15.8509 6.76539 15.6559C6.93481 15.4609 7.0222 15.2079 7.00924 14.9499C6.99628 14.6918 6.88398 14.4488 6.69586 14.2718C6.50775 14.0947 6.25841 13.9973 6.00008 14H5.05086C5.05167 13.9918 5.05134 13.9834 5.05217 13.9752C5.52977 9.25282 9.27428 5.51711 14.0001 5.05076ZM15.0001 11.6666C13.9723 11.6666 13.0748 12.0881 12.5027 12.7318C11.9305 13.3754 11.6667 14.1944 11.6667 15C11.6667 15.8055 11.9305 16.6245 12.5027 17.2682C13.0748 17.9119 13.9723 18.3333 15.0001 18.3333C16.0279 18.3333 16.9253 17.9119 17.4975 17.2682C18.0696 16.6245 18.3334 15.8055 18.3334 15C18.3334 14.1944 18.0696 13.3754 17.4975 12.7318C16.9253 12.0881 16.0279 11.6666 15.0001 11.6666ZM15.0001 13.6666C15.5279 13.6666 15.7971 13.8286 16.0027 14.0599C16.2083 14.2912 16.3334 14.6389 16.3334 15C16.3334 15.3611 16.2083 15.7088 16.0027 15.9401C15.7971 16.1714 15.5279 16.3333 15.0001 16.3333C14.4723 16.3333 14.2031 16.1714 13.9975 15.9401C13.7919 15.7088 13.6667 15.3611 13.6667 15C13.6667 14.9097 13.6739 14.82 13.6889 14.7331C13.7337 14.4721 13.8433 14.2334 13.9975 14.0599C14.2031 13.8286 14.4723 13.6666 15.0001 13.6666Z" fill="#25242C"></path></svg>