<svg xmlns="http://www.w3.org/2000/svg" width="24" height="25" viewBox="0 0 24 25" fill="none"><path d="M9.65104 0.985653C9.60215 0.986855 9.5534 0.991642 9.50521 0.999976H1C0.734792 1 0.480453 1.10537 0.292923 1.2929C0.105392 1.48043 2.65169e-05 1.73477 0 1.99998V21.3333C0 23.3465 1.65348 25 3.66667 25H20.3333C22.3465 25 24 23.3465 24 21.3333V1.99998C24 1.73477 23.8946 1.48043 23.7071 1.2929C23.5195 1.10537 23.2652 1 23 0.999976H14.4974C14.39 0.982341 14.2805 0.982341 14.1732 0.999976H9.83073C9.77139 0.989802 9.71125 0.985009 9.65104 0.985653ZM2 2.99998H8.66667V7.99998C8.66667 9.27661 9.72336 10.3333 11 10.3333H13C14.2766 10.3333 15.3333 9.27661 15.3333 7.99998V2.99998H22V21.3333C22 22.2655 21.2655 23 20.3333 23H3.66667C2.73452 23 2 22.2655 2 21.3333V2.99998ZM10.6667 2.99998H13.3333V7.99998C13.3333 8.19667 13.1967 8.33331 13 8.33331H11C10.8033 8.33331 10.6667 8.19667 10.6667 7.99998V2.99998ZM15.3229 14.9909C15.1463 14.9936 14.9781 15.0663 14.855 15.193C14.732 15.3197 14.6642 15.4901 14.6667 15.6666V17C14.6654 17.0883 14.6817 17.176 14.7147 17.258C14.7476 17.34 14.7965 17.4146 14.8586 17.4775C14.9206 17.5404 14.9945 17.5904 15.076 17.6245C15.1575 17.6586 15.245 17.6761 15.3333 17.6761C15.4217 17.6761 15.5092 17.6586 15.5907 17.6245C15.6722 17.5904 15.7461 17.5404 15.8081 17.4775C15.8701 17.4146 15.919 17.34 15.952 17.258C15.9849 17.176 16.0012 17.0883 16 17V15.6666C16.0012 15.5774 15.9845 15.4889 15.9509 15.4063C15.9173 15.3237 15.8675 15.2486 15.8043 15.1856C15.7412 15.1226 15.6661 15.0729 15.5834 15.0394C15.5007 15.006 15.4121 14.9895 15.3229 14.9909ZM17.9896 14.9909C17.813 14.9936 17.6447 15.0663 17.5217 15.193C17.3987 15.3197 17.3309 15.4901 17.3333 15.6666V17C17.3321 17.0883 17.3484 17.176 17.3813 17.258C17.4143 17.34 17.4632 17.4146 17.5252 17.4775C17.5873 17.5404 17.6612 17.5904 17.7427 17.6245C17.8242 17.6586 17.9116 17.6761 18 17.6761C18.0884 17.6761 18.1758 17.6586 18.2573 17.6245C18.3388 17.5904 18.4127 17.5404 18.4748 17.4775C18.5368 17.4146 18.5857 17.34 18.6187 17.258C18.6516 17.176 18.6679 17.0883 18.6667 17V15.6666C18.6679 15.5774 18.6512 15.4889 18.6176 15.4063C18.584 15.3237 18.5341 15.2486 18.471 15.1856C18.4079 15.1226 18.3327 15.0729 18.25 15.0394C18.1673 15.006 18.0788 14.9895 17.9896 14.9909ZM14.6667 19C14.5783 18.9987 14.4906 19.015 14.4086 19.048C14.3267 19.0809 14.252 19.1298 14.1891 19.1919C14.1262 19.2539 14.0763 19.3278 14.0422 19.4093C14.0081 19.4908 13.9905 19.5783 13.9905 19.6666C13.9905 19.755 14.0081 19.8425 14.0422 19.924C14.0763 20.0055 14.1262 20.0794 14.1891 20.1414C14.252 20.2034 14.3267 20.2524 14.4086 20.2853C14.4906 20.3182 14.5783 20.3346 14.6667 20.3333H18.6667C18.755 20.3346 18.8427 20.3182 18.9247 20.2853C19.0067 20.2524 19.0813 20.2034 19.1442 20.1414C19.2071 20.0794 19.2571 20.0055 19.2912 19.924C19.3253 19.8425 19.3428 19.755 19.3428 19.6666C19.3428 19.5783 19.3253 19.4908 19.2912 19.4093C19.2571 19.3278 19.2071 19.2539 19.1442 19.1919C19.0813 19.1298 19.0067 19.0809 18.9247 19.048C18.8427 19.015 18.755 18.9987 18.6667 19H14.6667Z" fill="#25242C"></path></svg>